<?xml version="1.0" standalone="no"?>
<!DOCTYPE svg PUBLIC "-//W3C//DTD SVG 20010904//EN"
 "http://www.w3.org/TR/2001/REC-SVG-20010904/DTD/svg10.dtd">
<svg version="1.0" xmlns="http://www.w3.org/2000/svg"
 width="500.000000pt" height="500.000000pt" viewBox="0 0 500.000000 500.000000"
 preserveAspectRatio="xMidYMid meet">

<g transform="translate(0.000000,500.000000) scale(0.100000,-0.100000)"
fill="#000000" stroke="none">
<path d="M2635 3761 c-3 -5 18 -33 47 -61 l52 -51 -165 -166 c-90 -91 -189
-192 -219 -223 -30 -31 -110 -113 -177 -182 -110 -112 -123 -128 -123 -160 0
-42 30 -75 55 -61 9 5 172 162 362 349 190 186 351 340 357 342 6 1 29 -16 51
-38 68 -69 75 -58 75 114 0 82 -4 126 -12 134 -15 15 -294 17 -303 3z"/>
<path d="M2702 3332 c-9 -7 -12 -94 -10 -403 l3 -394 125 0 125 0 0 400 0 400
-115 3 c-63 1 -121 -2 -128 -6z"/>
<path d="M2389 3003 c-4 -304 -3 -431 3 -450 7 -22 12 -23 121 -23 75 0 117 4
125 12 9 9 12 78 12 249 0 131 -3 244 -6 253 -5 13 -26 16 -130 16 l-124 0 -1
-57z"/>
<path d="M2064 2767 c-2 -7 -3 -62 -2 -123 l3 -109 124 -3 c93 -2 126 1 133
10 9 15 11 199 2 222 -5 13 -26 16 -130 16 -94 0 -126 -3 -130 -13z"/>
<path d="M1050 2045 l0 -325 220 0 220 0 0 55 0 55 -155 0 -155 0 0 85 0 85
140 0 140 0 0 50 0 50 -140 0 -140 0 0 85 0 85 155 0 155 0 0 50 0 50 -220 0
-220 0 0 -325z"/>
<path d="M1580 2045 l0 -325 60 0 60 0 0 325 0 325 -60 0 -60 0 0 -325z"/>
<path d="M3330 2265 l0 -65 -41 0 -40 0 3 -47 c3 -46 5 -48 33 -49 17 -1 33
-2 38 -3 4 -1 7 -69 7 -152 0 -136 2 -154 21 -180 26 -36 106 -62 167 -53 l42
6 0 44 0 44 -37 0 c-70 1 -77 13 -81 160 l-4 130 33 2 c19 0 45 1 59 2 23 1
25 6 28 48 l3 47 -58 3 -58 3 -3 63 -3 62 -54 0 -55 0 0 -65z"/>
<path d="M1912 2198 c-85 -41 -142 -135 -142 -234 0 -57 29 -142 61 -179 102
-116 312 -96 379 36 l20 39 -57 0 c-48 0 -62 -5 -80 -24 -41 -42 -115 -44
-162 -2 -20 18 -51 73 -51 91 0 3 81 5 180 5 l180 0 0 46 c0 74 -20 125 -70
174 -70 71 -172 90 -258 48z m167 -91 c14 -12 41 -68 41 -87 0 -6 -43 -10
-115 -10 -104 0 -115 2 -115 18 0 34 40 78 85 94 26 9 86 0 104 -15z"/>
<path d="M2904 2202 c-58 -24 -82 -44 -104 -88 -31 -59 -28 -64 40 -64 45 0
60 3 60 14 0 26 50 56 94 56 50 0 84 -25 88 -64 3 -27 0 -30 -47 -42 -27 -8
-67 -14 -87 -14 -21 0 -61 -9 -90 -20 -63 -23 -91 -62 -91 -125 0 -90 58 -145
154 -145 67 0 103 13 142 52 l27 28 0 -35 0 -35 58 0 58 0 -3 168 c-4 219 -8
243 -41 275 -60 56 -174 74 -258 39z m176 -299 c-1 -62 -48 -103 -117 -103
-72 0 -107 55 -62 96 20 19 98 41 152 43 25 1 27 -2 27 -36z"/>
<path d="M3840 2203 c-8 -3 -30 -19 -47 -36 l-33 -31 0 32 0 32 -60 0 -60 0 0
-240 0 -240 60 0 60 0 0 156 0 156 34 34 c30 30 40 34 85 34 l51 0 0 55 0 55
-37 -1 c-21 0 -45 -3 -53 -6z"/>
<path d="M2276 2133 c33 -89 110 -294 136 -360 l20 -53 68 0 67 0 67 173 c36
95 77 203 91 240 l24 67 -63 0 -63 0 -58 -175 c-33 -96 -62 -175 -66 -175 -3
0 -21 46 -39 103 -17 56 -41 127 -51 158 -10 30 -19 63 -19 72 0 14 -11 17
-70 17 l-69 0 25 -67z"/>
<path d="M1060 1445 c0 -37 4 -65 10 -65 6 0 10 9 10 20 0 13 7 20 18 20 25 0
42 19 42 47 0 24 -26 43 -59 43 -19 0 -21 -6 -21 -65z m60 20 c0 -18 -5 -25
-20 -25 -15 0 -20 7 -20 25 0 18 5 25 20 25 15 0 20 -7 20 -25z"/>
<path d="M1180 1445 c0 -37 4 -65 10 -65 6 0 10 8 10 18 0 10 3 21 6 25 10 9
34 -4 34 -18 0 -15 18 -30 26 -22 3 3 0 15 -6 27 -9 16 -9 25 -1 33 27 27 -3
67 -50 67 l-29 0 0 -65z m65 20 c0 -13 -8 -21 -22 -23 -19 -3 -23 1 -23 23 0
22 4 26 23 23 14 -2 22 -10 22 -23z"/>
<path d="M1321 1484 c-25 -32 -25 -36 -6 -74 33 -63 128 -23 110 47 -14 55
-70 70 -104 27z m79 -18 c18 -48 -14 -86 -54 -64 -19 10 -21 59 -4 76 20 20
48 14 58 -12z"/>
<path d="M1470 1445 c0 -37 4 -65 10 -65 6 0 10 11 10 25 0 20 5 25 25 25 14
0 25 5 25 10 0 6 -11 10 -25 10 -18 0 -25 5 -25 20 0 15 7 20 25 20 14 0 25 5
25 10 0 6 -16 10 -35 10 l-35 0 0 -65z"/>
<path d="M1590 1445 l0 -65 35 0 c19 0 35 5 35 10 0 6 -11 10 -25 10 -37 0
-35 37 3 43 l27 4 -27 2 c-38 2 -41 41 -3 41 14 0 25 5 25 10 0 6 -16 10 -35
10 l-35 0 0 -65z"/>
<path d="M1712 1498 c-18 -18 -15 -48 6 -54 47 -15 66 -39 37 -50 -9 -4 -25 2
-37 12 -20 19 -20 19 -17 -1 6 -27 76 -35 86 -9 8 23 -9 47 -38 54 -29 7 -39
40 -12 40 11 0 24 -5 31 -12 17 -17 28 -2 12 17 -15 18 -51 20 -68 3z"/>
<path d="M1842 1498 c-22 -22 -13 -47 23 -62 19 -8 35 -20 35 -26 0 -17 -29
-23 -45 -10 -18 15 -34 5 -18 -11 6 -6 26 -9 44 -7 27 2 35 8 37 26 3 18 -4
26 -32 37 -20 9 -36 22 -36 30 0 18 31 20 48 3 17 -17 28 -2 12 17 -15 18 -51
20 -68 3z"/>
<path d="M1960 1445 c0 -37 4 -65 10 -65 6 0 10 28 10 65 0 37 -4 65 -10 65
-6 0 -10 -28 -10 -65z"/>
<path d="M2036 1495 c-23 -18 -27 -75 -7 -99 16 -19 74 -21 89 -3 23 27 24 62
2 90 -24 30 -55 34 -84 12z m71 -27 c16 -37 -1 -70 -34 -66 -22 2 -29 9 -31
31 -5 41 4 57 31 57 15 0 28 -8 34 -22z"/>
<path d="M2180 1448 c0 -39 4 -68 10 -68 6 0 10 17 10 38 l1 37 32 -38 c18
-20 35 -37 40 -37 4 0 7 29 7 65 0 37 -4 65 -10 65 -5 0 -10 -21 -10 -47 l-1
-48 -20 27 c-11 14 -28 37 -39 50 l-19 23 -1 -67z"/>
<path d="M2336 1449 c-10 -33 -15 -63 -12 -66 3 -3 8 2 12 11 8 21 50 21 63
-1 19 -35 21 -5 2 53 -25 79 -42 80 -65 3z m47 1 c4 -15 0 -20 -14 -20 -20 0
-23 8 -13 34 7 20 20 13 27 -14z"/>
<path d="M2460 1445 l0 -65 35 0 c19 0 35 5 35 10 0 6 -11 10 -25 10 -24 0
-25 3 -25 55 0 30 -4 55 -10 55 -6 0 -10 -28 -10 -65z"/>
<path d="M2630 1445 c0 -72 17 -90 22 -22 l3 42 30 -42 c17 -24 33 -43 38 -43
4 0 6 30 5 68 -1 66 -1 66 -7 17 l-6 -50 -35 47 c-19 26 -38 47 -42 48 -5 0
-8 -29 -8 -65z"/>
<path d="M2780 1445 l0 -65 41 0 c24 0 38 4 34 10 -3 6 -17 10 -31 10 -36 0
-33 37 4 43 l27 4 -27 2 c-21 1 -28 6 -28 21 0 16 7 20 30 20 17 0 30 5 30 10
0 6 -18 10 -40 10 l-40 0 0 -65z"/>
<path d="M2890 1500 c0 -5 7 -10 15 -10 15 0 22 -19 28 -80 2 -22 4 -14 5 23
2 50 5 57 22 57 11 0 20 5 20 10 0 6 -20 10 -45 10 -25 0 -45 -4 -45 -10z"/>
<path d="M3020 1498 c0 -34 26 -118 37 -118 7 0 18 18 24 40 14 46 25 44 35
-5 9 -49 29 -43 44 13 7 26 14 55 17 65 2 9 0 17 -5 17 -5 0 -15 -20 -21 -45
-6 -25 -13 -45 -16 -45 -3 0 -10 20 -16 45 -13 52 -30 54 -40 6 -11 -56 -27
-59 -34 -7 -4 25 -11 46 -16 46 -5 0 -9 -5 -9 -12z"/>
<path d="M3220 1490 c-41 -41 -14 -110 43 -110 29 0 57 32 57 67 0 28 -33 63
-60 63 -11 0 -29 -9 -40 -20z m73 -21 c5 -9 7 -28 3 -42 -5 -21 -12 -27 -35
-27 -29 0 -41 15 -41 49 0 39 52 54 73 20z"/>
<path d="M3360 1445 c0 -37 4 -65 10 -65 6 0 10 9 10 19 0 32 17 33 39 5 25
-31 38 -26 20 7 -9 17 -9 24 0 27 18 6 13 50 -8 62 -11 5 -31 10 -45 10 -25 0
-26 -2 -26 -65z m65 20 c0 -13 -8 -21 -22 -23 -19 -3 -23 1 -23 23 0 22 4 26
23 23 14 -2 22 -10 22 -23z"/>
<path d="M3490 1445 c0 -37 4 -65 10 -65 6 0 10 11 10 25 0 33 13 32 38 -2 11
-16 23 -25 27 -21 4 3 -3 20 -16 37 l-23 31 24 25 c13 14 20 28 16 32 -4 5
-21 -8 -37 -27 l-28 -35 -1 33 c0 17 -4 32 -10 32 -6 0 -10 -28 -10 -65z"/>
<path d="M3620 1445 c0 -37 4 -65 10 -65 6 0 10 28 10 65 0 37 -4 65 -10 65
-6 0 -10 -28 -10 -65z"/>
<path d="M3680 1445 c0 -72 17 -90 22 -22 l3 42 30 -42 c43 -60 57 -56 54 15
-3 75 -13 90 -19 27 l-5 -50 -33 48 c-18 26 -37 47 -42 47 -6 0 -10 -29 -10
-65z"/>
<path d="M3842 1487 c-26 -27 -28 -54 -6 -85 19 -27 71 -30 90 -4 21 28 17 42
-13 41 -17 -1 -21 -3 -10 -6 9 -2 17 -8 17 -13 0 -14 -33 -28 -50 -22 -33 11
-41 60 -14 83 12 10 22 10 45 2 30 -12 37 -5 17 15 -19 19 -53 14 -76 -11z"/>
</g>
</svg>
